<mxfile host="app.diagrams.net" modified="2021-08-11T15:02:21.707Z" agent="5.0 (Macintosh; Intel Mac OS X 10_15_7) AppleWebKit/537.36 (KHTML, like Gecko) Chrome/92.0.4515.131 Safari/537.36" etag="sCnH_qfsCJGbCOXBT2pZ" version="14.9.4" type="github">
  <diagram id="_SLYg0SF01I9KSRw-2f-" name="Page-1">
    <mxGraphModel dx="1186" dy="710" grid="1" gridSize="10" guides="1" tooltips="1" connect="1" arrows="1" fold="1" page="1" pageScale="1" pageWidth="850" pageHeight="1100" math="0" shadow="0">
      <root>
        <mxCell id="0" />
        <mxCell id="1" parent="0" />
        <mxCell id="FfXMw1Led38NTQ3rzjUO-9" value="" style="rounded=0;whiteSpace=wrap;html=1;fillColor=#fff2cc;strokeColor=#d6b656;" vertex="1" parent="1">
          <mxGeometry x="350" y="10" width="200" height="160" as="geometry" />
        </mxCell>
        <mxCell id="FfXMw1Led38NTQ3rzjUO-7" value="" style="rounded=0;whiteSpace=wrap;html=1;fillColor=#dae8fc;strokeColor=#6c8ebf;" vertex="1" parent="1">
          <mxGeometry x="365" y="270" width="195" height="150" as="geometry" />
        </mxCell>
        <mxCell id="FfXMw1Led38NTQ3rzjUO-1" value="LUGGAGE" style="whiteSpace=wrap;html=1;aspect=fixed;" vertex="1" parent="1">
          <mxGeometry x="150" y="160" width="130" height="130" as="geometry" />
        </mxCell>
        <mxCell id="FfXMw1Led38NTQ3rzjUO-2" value="BACKPACK" style="ellipse;whiteSpace=wrap;html=1;aspect=fixed;" vertex="1" parent="1">
          <mxGeometry x="390" y="40" width="110" height="110" as="geometry" />
        </mxCell>
        <mxCell id="FfXMw1Led38NTQ3rzjUO-3" value="ROLLING SUITCASE" style="ellipse;whiteSpace=wrap;html=1;aspect=fixed;" vertex="1" parent="1">
          <mxGeometry x="400" y="290" width="110" height="110" as="geometry" />
        </mxCell>
        <mxCell id="FfXMw1Led38NTQ3rzjUO-4" value="" style="endArrow=classic;html=1;exitX=1.008;exitY=0.638;exitDx=0;exitDy=0;exitPerimeter=0;entryX=0.009;entryY=0.309;entryDx=0;entryDy=0;entryPerimeter=0;" edge="1" parent="1" source="FfXMw1Led38NTQ3rzjUO-1" target="FfXMw1Led38NTQ3rzjUO-3">
          <mxGeometry width="50" height="50" relative="1" as="geometry">
            <mxPoint x="400" y="380" as="sourcePoint" />
            <mxPoint x="450" y="330" as="targetPoint" />
          </mxGeometry>
        </mxCell>
        <mxCell id="FfXMw1Led38NTQ3rzjUO-5" value="" style="endArrow=classic;html=1;entryX=0;entryY=0.727;entryDx=0;entryDy=0;entryPerimeter=0;" edge="1" parent="1" target="FfXMw1Led38NTQ3rzjUO-2">
          <mxGeometry width="50" height="50" relative="1" as="geometry">
            <mxPoint x="280" y="240" as="sourcePoint" />
            <mxPoint x="330" y="190" as="targetPoint" />
          </mxGeometry>
        </mxCell>
      </root>
    </mxGraphModel>
  </diagram>
</mxfile>
